# xmcd CD database file
#
# Track frame offsets:
#	182
#	19215
#	31782
#	47085
#	63032
#	81255
#	89690
#	103920
#	117755
#	124282
#	135860
#	151547
#	165947
#	180860
#	198657
#	204175
#	211462
#	219577
#
# Disc length: 3127 seconds
#
# Revision: 8
# Processed by: cddbd v1.5.1PL2 Copyright (c) Steve Scherf et al.
# Submitted via: CDex 1.51
#
DISCID=e70c3512
DTITLE=Didier Squiban - Porz Gwenn
DYEAR=1999
DGENRE=Jazz
TTITLE0=Tal Ar Mor
TTITLE1=Kastellig
TTITLE2=Forzh Penaoz
TTITLE3=Diskan
TTITLE4=Petit Air Marin
TTITLE5=Cantique Breton
TTITLE6=Marche
TTITLE7=Airs de Gavotte
TTITLE8=Nominoë
TTITLE9=Choral
TTITLE10=An Dro de Pont Kalleg
TTITLE11=Ar Paotr Yaouank Kozh
TTITLE12=Sur la Route de Saint-Claude
TTITLE13=Ridée de Loperhet
TTITLE14=Rond de Molène
TTITLE15=Ronds d'Iroise
TTITLE16=Ar C'hoadig
TTITLE17=Porz Gwenn
EXTD=YEAR: 1999
EXTT0=
EXTT1=
EXTT2=
EXTT3=
EXTT4=
EXTT5=
EXTT6=
EXTT7=
EXTT8=
EXTT9=
EXTT10=
EXTT11=
EXTT12=
EXTT13=
EXTT14=
EXTT15=
EXTT16=
EXTT17=
PLAYORDER=
